<svg xmlns="http://www.w3.org/2000/svg" viewBox="0 0 24 24"><circle cx="14.186" cy="12.729" r="0.75"/><circle cx="9.744" cy="12.729" r="0.75"/><path d="M10.017,15.052a2.035,2.035,0,0,0,1.973,1.355,2.015,2.015,0,0,0,1.923-1.355.5.5,0,0,0-.954-.3,1.036,1.036,0,0,1-1.019.656,1,1,0,0,1-.969-.656.5.5,0,0,0-.954.3Z"/><path d="M5.527,6.607v6.587a6.473,6.473,0,1,0,12.946,0V6.607A2.277,2.277,0,0,0,16.2,4.332H7.8A2.277,2.277,0,0,0,5.527,6.607Zm11.946,6.587a5.473,5.473,0,1,1-10.946,0V11.28a6.25,6.25,0,0,0,3.7-1.655,16.452,16.452,0,0,0,7.249,1.656Zm0-6.587V10.28a15.185,15.185,0,0,1-7.11-1.716.5.5,0,0,0-.627.116,5.082,5.082,0,0,1-3.209,1.58V6.607A1.276,1.276,0,0,1,7.8,5.332h8.4A1.276,1.276,0,0,1,17.473,6.607Z"/><path d="M20.7,0H16a.5.5,0,0,0,0,1h4.7A2.305,2.305,0,0,1,23,3.3V8.088a.5.5,0,1,0,1,0V3.3A3.306,3.306,0,0,0,20.7,0Z"/><path d="M.5,8.588a.5.5,0,0,0,.5-.5V3.3A2.305,2.305,0,0,1,3.3,1H8A.5.5,0,0,0,8,0H3.3A3.306,3.306,0,0,0,0,3.3V8.088A.5.5,0,0,0,.5,8.588Z"/><path d="M23.5,15.588a.5.5,0,0,0-.5.5V20.7A2.305,2.305,0,0,1,20.7,23H16a.5.5,0,0,0,0,1h4.7A3.306,3.306,0,0,0,24,20.7V16.088A.5.5,0,0,0,23.5,15.588Z"/><path d="M3.3,24H8a.5.5,0,0,0,0-1H3.3A2.305,2.305,0,0,1,1,20.7V16.088a.5.5,0,1,0-1,0V20.7A3.306,3.306,0,0,0,3.3,24Z"/></svg>