<svg xmlns="http://www.w3.org/2000/svg" viewBox="0 0 24 24"><path d="M8.163,12.526l0,0a.5.5,0,0,0-.117.2c0,.008-.009.012-.011.02l-.991,3.6a.5.5,0,0,0,.481.633.465.465,0,0,0,.133-.019l3.6-.991c.008,0,.012-.009.02-.011a.5.5,0,0,0,.2-.117l0,0h0l12.17-12.17a1.216,1.216,0,0,0,0-1.718L22.051.356a1.216,1.216,0,0,0-1.718,0L8.163,12.526ZM21.041,1.063a.214.214,0,0,1,.3,0l1.593,1.593a.214.214,0,0,1,0,.3l-.443.443-1.9-1.9Zm-1.15,1.15,1.9,1.9L11.118,14.778l-1.9-1.9ZM8.769,13.843l1.388,1.388L8.24,15.76Z"/><path d="M1.818,24H19.182A1.819,1.819,0,0,0,21,22.182V10.414a.5.5,0,0,0-1,0V22.182a.819.819,0,0,1-.818.818H1.818A.819.819,0,0,1,1,22.182V4.818A.819.819,0,0,1,1.818,4H13.586a.5.5,0,0,0,0-1H1.818A1.819,1.819,0,0,0,0,4.818V22.182A1.819,1.819,0,0,0,1.818,24Z"/></svg>