<svg xmlns="http://www.w3.org/2000/svg" viewBox="0 0 24 24"><path d="M.783,8.811,12,1.106,23.217,8.811a.5.5,0,0,0,.566-.825l-11.5-7.9a.5.5,0,0,0-.566,0l-11.5,7.9a.5.5,0,0,0,.566.825Z"/><path d="M15,24h3.276A2.227,2.227,0,0,0,20.5,21.776V9.664a.5.5,0,0,0-1,0V21.776A1.225,1.225,0,0,1,18.276,23H15.5V18.5a3.5,3.5,0,0,0-7,0V23H5.724A1.225,1.225,0,0,1,4.5,21.776V9.664a.5.5,0,0,0-1,0V21.776A2.227,2.227,0,0,0,5.724,24H9a.5.5,0,0,0,.5-.5v-5a2.5,2.5,0,0,1,5,0v5A.5.5,0,0,0,15,24Z"/><path d="M15,12.5a.5.5,0,0,0,0-1H9a.5.5,0,0,0,0,1Z"/></svg>