<?xml version="1.0" encoding="UTF-8" standalone="no"?>
<!DOCTYPE svg PUBLIC "-//W3C//DTD SVG 1.1//EN" "http://www.w3.org/Graphics/SVG/1.1/DTD/svg11.dtd">
<svg width="100%" height="100%" viewBox="0 0 67 67" version="1.1" xmlns="http://www.w3.org/2000/svg" xmlns:xlink="http://www.w3.org/1999/xlink" xml:space="preserve" xmlns:serif="http://www.serif.com/" style="fill-rule:evenodd;clip-rule:evenodd;stroke-linejoin:round;stroke-miterlimit:2;">
    <g transform="matrix(1,0,0,1,-35845.3,-1993.09)">
        <g id="END:-NEW-TRIAL" serif:id="END: NEW TRIAL">
        </g>
        <g id="START:-NEW-TRIAL" serif:id="START: NEW TRIAL">
        </g>
        <g id="END:-OLD-HOMEPAGE" serif:id="END: OLD HOMEPAGE">
        </g>
        <g id="START:-OLD-HOMEPAGE" serif:id="START: OLD HOMEPAGE">
        </g>
        <g id="colors">
        </g>
        <g id="logo-box" transform="matrix(1,0,0,1,-138.91,0.594655)">
            <rect x="35984.2" y="1992.5" width="66.304" height="66.304" style="fill:none;"/>
            <clipPath id="_clip1">
                <rect x="35984.2" y="1992.5" width="66.304" height="66.304"/>
            </clipPath>
            <g clip-path="url(#_clip1)">
                <g transform="matrix(1,0,0,1,0.192025,0.49761)">
                    <rect x="35984" y="1992" width="66.304" height="66.304" style="fill:none;"/>
                </g>
                <g transform="matrix(1,0,0,1,138.91,-0.594655)">
                    <path d="M35887.3,2020.8C35885.4,2017.84 35886.3,2028.7 35885.3,2033.53C35884.3,2038.37 35883.1,2039.81 35881.2,2042.57C35880.5,2043.56 35878.1,2044.44 35877.7,2045.21C35875.6,2042.45 35874.8,2042.15 35872.3,2041.48C35869.5,2040.76 35867.9,2042.56 35866.9,2042.61C35866,2042.56 35864.3,2040.76 35861.6,2041.48C35859,2042.15 35858.2,2042.55 35856.1,2045.21C35855.7,2044.44 35853.4,2043.57 35852.7,2042.57C35850.8,2039.76 35850,2038.26 35848.6,2033.53C35847.3,2029 35847.3,2018.9 35846.6,2020.8C35845.8,2022.77 35845.9,2032.05 35847.5,2037.53C35849,2043.01 35851.2,2045.32 35852.4,2049.98C35853.5,2054.63 35857.4,2059.4 35866.9,2059.4C35876.4,2059.4 35880.3,2054.63 35881.5,2049.98C35882.7,2045.32 35884.9,2043.01 35886.4,2037.53C35887.9,2032.05 35888.4,2022.57 35887.3,2020.8ZM35872.8,2052.43C35870,2054.44 35869,2053.07 35869.4,2051.34C35869.7,2049.6 35868.3,2048.87 35866.9,2048.87C35865.6,2048.87 35864.1,2049.6 35864.5,2051.34C35864.8,2053.07 35863.9,2054.44 35861.1,2052.43C35859.7,2051.42 35858.9,2050.55 35858.3,2049.63C35857.7,2048.13 35857.6,2046.3 35859.9,2046.05C35862.3,2045.77 35865.2,2046.32 35866.9,2046.32C35868.6,2046.32 35871.6,2045.77 35874,2046.05C35876.3,2046.3 35876.2,2048.13 35875.6,2049.63C35875,2050.55 35874.2,2051.42 35872.8,2052.43ZM35883.1,2022.65C35883.1,2021.3 35881.9,2020.21 35880.6,2020.23L35871.5,2020.37C35870.2,2020.38 35869.1,2021.5 35869.1,2022.86L35869.2,2027.78C35869.2,2029.13 35870.3,2030.22 35871.6,2030.2L35880.7,2030.07C35882.1,2030.05 35883.2,2028.93 35883.1,2027.57L35883.1,2022.65ZM35864.7,2022.86C35864.7,2021.5 35863.6,2020.38 35862.2,2020.36L35853.2,2020.23C35851.8,2020.21 35850.7,2021.3 35850.7,2022.66L35850.6,2027.57C35850.6,2028.93 35851.7,2030.05 35853.1,2030.07L35862.1,2030.2C35863.5,2030.22 35864.6,2029.13 35864.6,2027.77L35864.7,2022.86Z" style="fill:rgb(204,204,204);fill-rule:nonzero;"/>
                </g>
                <g transform="matrix(1,0,0,1,138.91,-0.594655)">
                    <path d="M35886.5,2022.56C35886.3,2024.82 35886.1,2026.41 35886.1,2026.41C35886.1,2026.41 35885.2,2024.14 35885.3,2021.14C35884.9,2021.31 35884.5,2021.52 35884,2021.79C35884,2021.79 35884.5,2012.81 35879.2,2006.82C35881.5,2013.48 35879.6,2016.67 35879.6,2016.67C35879.6,2016.67 35880.2,2007.21 35875.1,2003.67C35872.3,2003.19 35869.6,2002.94 35867.1,2002.88C35867,2002.91 35866.9,2002.95 35866.8,2002.98C35866.8,2002.98 35866.7,2002.94 35866.6,2002.88C35866.4,2002.87 35866.2,2002.87 35866,2002.87C35863.2,2002.87 35859.1,2003.13 35855.8,2003.69C35850.1,2004.93 35849.7,2008.17 35848.8,2010.21C35847.4,2013.8 35847,2018.36 35847.2,2020.45C35847.5,2023.79 35846.2,2029.24 35846.2,2029.24C35846.2,2029.24 35844.3,2011.15 35845.9,2007.07C35846.8,2004.84 35847.9,2002.53 35850,2000.81C35849.5,2000 35850.5,1998.86 35851.1,1998.23C35852.4,1997.02 35858.2,1991.3 35873.3,1993.66C35884.2,1995.36 35889.6,2010.97 35887.9,2019.13C35887.9,2019.37 35887.8,2019.57 35887.7,2019.73L35887.8,2022.66L35886.5,2022.56Z" style="fill:rgb(204,204,204);"/>
                </g>
            </g>
        </g>
    </g>
</svg>
