<svg xmlns="http://www.w3.org/2000/svg" viewBox="0 0 24 24"><path d="M1.539,9h9.422A1.54,1.54,0,0,0,12.5,7.461V1.539A1.54,1.54,0,0,0,10.961,0H1.539A1.54,1.54,0,0,0,0,1.539V7.461A1.54,1.54,0,0,0,1.539,9ZM1,1.539A.54.54,0,0,1,1.539,1h9.422a.54.54,0,0,1,.539.539V7.461A.54.54,0,0,1,10.961,8H1.539A.54.54,0,0,1,1,7.461Z"/><path d="M1.539,24H7.461A1.54,1.54,0,0,0,9,22.461V13.039A1.54,1.54,0,0,0,7.461,11.5H1.539A1.54,1.54,0,0,0,0,13.039v9.422A1.54,1.54,0,0,0,1.539,24ZM1,13.039a.54.54,0,0,1,.539-.539H7.461A.54.54,0,0,1,8,13.039v9.422A.54.54,0,0,1,7.461,23H1.539A.54.54,0,0,1,1,22.461Z"/><path d="M22.461,11.5H13.039A1.54,1.54,0,0,0,11.5,13.039v9.422A1.54,1.54,0,0,0,13.039,24h9.422A1.54,1.54,0,0,0,24,22.461V13.039A1.54,1.54,0,0,0,22.461,11.5ZM23,22.461a.54.54,0,0,1-.539.539H13.039a.54.54,0,0,1-.539-.539V13.039a.54.54,0,0,1,.539-.539h9.422a.54.54,0,0,1,.539.539Z"/><path d="M22.461,0H16.539A1.54,1.54,0,0,0,15,1.539V7.461A1.54,1.54,0,0,0,16.539,9h5.922A1.54,1.54,0,0,0,24,7.461V1.539A1.54,1.54,0,0,0,22.461,0ZM23,7.461A.54.54,0,0,1,22.461,8H16.539A.54.54,0,0,1,16,7.461V1.539A.54.54,0,0,1,16.539,1h5.922A.54.54,0,0,1,23,1.539Z"/></svg>